<svg width="170" height="33" viewBox="0 0 170 33" fill="none" xmlns="http://www.w3.org/2000/svg">
<path d="M43.019 26.7749V29.2979H35.74V26.7749H37.944V15.5229H35.74V12.9709H43.019V15.5229H40.873V26.7749H43.019ZM46.642 29.2979V12.9709H51.804L55.632 28.0219H55.69L59.489 12.9709H64.622V29.2979H61.548L61.751 14.3049H61.722L57.807 29.2979H53.457L49.6 14.3049H49.542L49.716 29.2979H46.642ZM66.8078 29.2979L72.0278 12.9709H76.8708L82.2358 29.2979H79.0748L77.6828 24.6869H71.3318L69.9398 29.2979H66.8078ZM74.4928 14.2179L72.0278 22.3959H76.9868L74.4928 14.2179ZM91.0926 29.6169C89.5073 29.6169 88.1153 29.2979 86.9166 28.6599C85.7373 28.0219 84.8286 27.0842 84.1906 25.8469C83.5526 24.5902 83.253 23.0532 83.2916 21.2359C83.311 19.3992 83.6686 17.8429 84.3646 16.5669C85.08 15.2909 86.0563 14.3242 87.2936 13.6669C88.531 13.0095 89.9616 12.6809 91.5856 12.6809C93.809 12.6809 95.5296 13.1642 96.7476 14.1309C97.9656 15.0975 98.7776 16.4992 99.1836 18.3359L96.3416 18.7419C96.0516 17.5239 95.4523 16.6732 94.5436 16.1899C93.6543 15.7065 92.6683 15.4649 91.5856 15.4649C89.7296 15.4649 88.3666 15.9675 87.4966 16.9729C86.646 17.9782 86.211 19.3219 86.1916 21.0039C86.1916 22.8599 86.6846 24.2905 87.6706 25.2959C88.6566 26.2819 90.068 26.7749 91.9046 26.7749C93.026 26.7749 94.041 26.5139 94.9496 25.9919C95.8583 25.4505 96.448 24.5902 96.7186 23.4109H93.1226V21.2359H99.5026V29.2979H97.5016L96.8346 26.4559H96.7766C96.5833 26.9392 96.245 27.4225 95.7616 27.9059C95.2976 28.3892 94.679 28.7952 93.9056 29.1239C93.1323 29.4525 92.1946 29.6169 91.0926 29.6169ZM109.77 26.7749V29.2979H102.491V26.7749H104.695V15.5229H102.491V12.9709H109.77V15.5229H107.624V26.7749H109.77ZM124.558 12.9709H127.632V29.2979H122.006L116.409 14.2759H116.351V29.2979H113.306V12.9709H118.526L124.5 27.9929H124.558V12.9709ZM138.317 26.7749V29.2979H131.038V26.7749H133.242V15.5229H131.038V12.9709H138.317V15.5229H136.171V26.7749H138.317ZM145.043 29.2979H142.143V12.9709H153.772V15.5229H145.043V19.5249H151.713V21.9319H145.043V29.2979ZM160.736 29.2979V23.5269L155.168 12.9709H158.474L162.273 20.9459L166.014 12.9709H169.32L163.665 23.4979V29.2979H160.736Z" fill="white"/>
<path d="M18.3516 12.2916C18.1406 12.3713 18 12.5729 18 12.7979C18 13.0229 18.1406 13.2244 18.3516 13.3041V13.3041C20.0344 13.9355 21.3623 15.2634 21.9938 16.9463V16.9463C22.0734 17.1572 22.275 17.2979 22.5 17.2979C22.725 17.2979 22.9266 17.1572 23.0062 16.9463V16.9463C23.6377 15.2634 24.9656 13.9355 26.6484 13.3041V13.3041C26.8594 13.2244 27 13.0229 27 12.7979C27 12.5729 26.8594 12.3713 26.6484 12.2916V12.2916C24.9656 11.6602 23.6377 10.3323 23.0062 8.64941V8.64941C22.9266 8.43848 22.725 8.29785 22.5 8.29785C22.275 8.29785 22.0734 8.43848 21.9938 8.64941V8.64941C21.3623 10.3323 20.0344 11.6602 18.3516 12.2916V12.2916ZM12.6141 11.7338C12.4922 11.4666 12.225 11.2979 11.9344 11.2979C11.6438 11.2979 11.3766 11.4666 11.2547 11.7338V11.7338C9.65741 15.1825 6.88576 17.9531 3.43594 19.5479V19.5479C3.16875 19.6697 3 19.9369 3 20.2322C3 20.5275 3.16875 20.79 3.43594 20.9119V20.9119C6.88455 22.5047 9.65851 25.2767 11.25 28.726V28.726C11.3719 28.9932 11.6391 29.1619 11.9297 29.1619C12.2203 29.1619 12.4875 28.9932 12.6094 28.726V28.726C14.2039 25.2736 16.9757 22.5018 20.4281 20.9072V20.9072C20.6953 20.7854 20.8641 20.5182 20.8641 20.2275C20.8641 19.9369 20.6953 19.6697 20.4281 19.5479V19.5479C16.9789 17.9564 14.2069 15.1824 12.6141 11.7338V11.7338ZM21.9938 23.6494C21.3623 25.3323 20.0344 26.6602 18.3516 27.2916V27.2916C18.1406 27.3713 18 27.5729 18 27.7979C18 28.0229 18.1406 28.2244 18.3516 28.3041V28.3041C20.0344 28.9355 21.3623 30.2634 21.9938 31.9463V31.9463C22.0734 32.1572 22.275 32.2979 22.5 32.2979C22.725 32.2979 22.9266 32.1572 23.0062 31.9463V31.9463C23.6377 30.2634 24.9656 28.9355 26.6484 28.3041V28.3041C26.8594 28.2244 27 28.0229 27 27.7979C27 27.5729 26.8594 27.3713 26.6484 27.2916V27.2916C24.9656 26.6602 23.6377 25.3323 23.0062 23.6494V23.6494C22.9266 23.4385 22.725 23.2979 22.5 23.2979C22.275 23.2979 22.0734 23.4385 21.9938 23.6494V23.6494Z" fill="white"/>
<g filter="url(#filter0_d_2044_2232)">
<ellipse cx="15.4599" cy="24.0106" rx="13.7318" ry="2.33654" transform="rotate(160.848 15.4599 24.0106)" stroke="url(#paint0_linear_2044_2232)" stroke-width="0.549291"/>
<g style="mix-blend-mode:screen" filter="url(#filter1_f_2044_2232)">
<ellipse cx="15.4599" cy="24.0106" rx="13.7318" ry="2.33654" transform="rotate(160.848 15.4599 24.0106)" stroke="url(#paint1_linear_2044_2232)" stroke-width="0.549291"/>
</g>
</g>
<g filter="url(#filter2_d_2044_2232)">
<circle cx="26.4135" cy="1.371" r="0.370998" fill="url(#paint2_linear_2044_2232)"/>
</g>
<g filter="url(#filter3_d_2044_2232)">
<circle cx="33.2205" cy="8.04592" r="0.156515" fill="url(#paint3_linear_2044_2232)"/>
</g>
<g filter="url(#filter4_d_2044_2232)">
<circle cx="7.40604" cy="11.7361" r="0.406037" fill="url(#paint4_linear_2044_2232)"/>
</g>
<g filter="url(#filter5_d_2044_2232)">
<circle cx="3.22391" cy="23.6289" r="0.406037" fill="url(#paint5_linear_2044_2232)"/>
</g>
<g filter="url(#filter6_d_2044_2232)">
<circle cx="27.2644" cy="26.8933" r="0.406037" fill="url(#paint6_linear_2044_2232)"/>
</g>
<g filter="url(#filter7_d_2044_2232)">
<circle cx="8.24929" cy="20.2678" r="0.156515" fill="url(#paint7_linear_2044_2232)"/>
</g>
<g filter="url(#filter8_d_2044_2232)">
<circle cx="14.246" cy="7.5438" r="0.245952" fill="url(#paint8_linear_2044_2232)"/>
</g>
<g filter="url(#filter9_d_2044_2232)">
<path d="M25.5935 13.4152C25.4831 13.3993 25.4042 13.3051 25.4053 13.188C25.4002 12.1424 25.281 11.9799 24.3122 11.7269C24.2007 11.6968 24.1268 11.5893 24.1426 11.4789C24.1587 11.367 24.2578 11.2874 24.3737 11.2868C25.3719 11.2907 25.5103 11.1885 25.8347 10.1917C25.8709 10.0811 25.97 10.0124 26.0789 10.0281C26.1909 10.0441 26.2682 10.1381 26.2701 10.2557C26.2725 11.2993 26.3916 11.4618 27.3589 11.7146C27.4733 11.7466 27.546 11.8509 27.5298 11.9643C27.514 12.0747 27.4179 12.1547 27.2989 12.1549C26.2987 12.1539 26.1621 12.2548 25.8408 13.252C25.8013 13.3636 25.7009 13.4306 25.5935 13.4152Z" fill="url(#paint9_linear_2044_2232)"/>
</g>
<g filter="url(#filter10_d_2044_2232)">
<path d="M4.94948 18.7463C4.86947 18.7584 4.79503 18.7094 4.77136 18.6278C4.54948 17.9028 4.43279 17.8148 3.70716 17.8414C3.62342 17.8438 3.5497 17.7845 3.53764 17.7046C3.52542 17.6235 3.57759 17.5475 3.65799 17.5229C4.35203 17.3171 4.42676 17.2173 4.44396 16.4574C4.44601 16.373 4.50047 16.3046 4.57937 16.2927C4.66049 16.2805 4.73382 16.3296 4.75971 16.4109C4.9792 17.1351 5.09589 17.2231 5.82041 17.1967C5.90654 17.1951 5.97881 17.2523 5.99121 17.3344C6.00327 17.4144 5.95331 17.49 5.8707 17.515C5.17587 17.7231 5.10209 17.8217 5.08711 18.5813C5.08301 18.6671 5.02727 18.7346 4.94948 18.7463Z" fill="url(#paint10_linear_2044_2232)"/>
</g>
<defs>
<filter id="filter0_d_2044_2232" x="0.553708" y="17.4089" width="29.8125" height="13.8582" filterUnits="userSpaceOnUse" color-interpolation-filters="sRGB">
<feFlood flood-opacity="0" result="BackgroundImageFix"/>
<feColorMatrix in="SourceAlpha" type="matrix" values="0 0 0 0 0 0 0 0 0 0 0 0 0 0 0 0 0 0 127 0" result="hardAlpha"/>
<feOffset dy="0.327344"/>
<feGaussianBlur stdDeviation="0.818361"/>
<feComposite in2="hardAlpha" operator="out"/>
<feColorMatrix type="matrix" values="0 0 0 0 0 0 0 0 0 0 0 0 0 0 0 0 0 0 0.45 0"/>
<feBlend mode="normal" in2="BackgroundImageFix" result="effect1_dropShadow_2044_2232"/>
<feBlend mode="normal" in="SourceGraphic" in2="effect1_dropShadow_2044_2232" result="shape"/>
</filter>
<filter id="filter1_f_2044_2232" x="1.93604" y="18.4639" width="27.0478" height="11.0935" filterUnits="userSpaceOnUse" color-interpolation-filters="sRGB">
<feFlood flood-opacity="0" result="BackgroundImageFix"/>
<feBlend mode="normal" in="SourceGraphic" in2="BackgroundImageFix" result="shape"/>
<feGaussianBlur stdDeviation="0.127195" result="effect1_foregroundBlur_2044_2232"/>
</filter>
<filter id="filter2_d_2044_2232" x="25.701" y="0.658513" width="1.42516" height="1.42492" filterUnits="userSpaceOnUse" color-interpolation-filters="sRGB">
<feFlood flood-opacity="0" result="BackgroundImageFix"/>
<feColorMatrix in="SourceAlpha" type="matrix" values="0 0 0 0 0 0 0 0 0 0 0 0 0 0 0 0 0 0 127 0" result="hardAlpha"/>
<feOffset/>
<feGaussianBlur stdDeviation="0.170743"/>
<feComposite in2="hardAlpha" operator="out"/>
<feColorMatrix type="matrix" values="0 0 0 0 0.592157 0 0 0 0 0.392157 0 0 0 0 1 0 0 0 1 0"/>
<feBlend mode="normal" in2="BackgroundImageFix" result="effect1_dropShadow_2044_2232"/>
<feBlend mode="normal" in="SourceGraphic" in2="effect1_dropShadow_2044_2232" result="shape"/>
</filter>
<filter id="filter3_d_2044_2232" x="32.7225" y="7.54792" width="0.995962" height="0.995962" filterUnits="userSpaceOnUse" color-interpolation-filters="sRGB">
<feFlood flood-opacity="0" result="BackgroundImageFix"/>
<feColorMatrix in="SourceAlpha" type="matrix" values="0 0 0 0 0 0 0 0 0 0 0 0 0 0 0 0 0 0 127 0" result="hardAlpha"/>
<feOffset/>
<feGaussianBlur stdDeviation="0.170743"/>
<feComposite in2="hardAlpha" operator="out"/>
<feColorMatrix type="matrix" values="0 0 0 0 0.592157 0 0 0 0 0.392157 0 0 0 0 1 0 0 0 1 0"/>
<feBlend mode="normal" in2="BackgroundImageFix" result="effect1_dropShadow_2044_2232"/>
<feBlend mode="normal" in="SourceGraphic" in2="effect1_dropShadow_2044_2232" result="shape"/>
</filter>
<filter id="filter4_d_2044_2232" x="6.1141" y="10.4442" width="2.58381" height="2.58381" filterUnits="userSpaceOnUse" color-interpolation-filters="sRGB">
<feFlood flood-opacity="0" result="BackgroundImageFix"/>
<feColorMatrix in="SourceAlpha" type="matrix" values="0 0 0 0 0 0 0 0 0 0 0 0 0 0 0 0 0 0 127 0" result="hardAlpha"/>
<feOffset/>
<feGaussianBlur stdDeviation="0.442949"/>
<feComposite in2="hardAlpha" operator="out"/>
<feColorMatrix type="matrix" values="0 0 0 0 0.592157 0 0 0 0 0.392157 0 0 0 0 1 0 0 0 1 0"/>
<feBlend mode="normal" in2="BackgroundImageFix" result="effect1_dropShadow_2044_2232"/>
<feBlend mode="normal" in="SourceGraphic" in2="effect1_dropShadow_2044_2232" result="shape"/>
</filter>
<filter id="filter5_d_2044_2232" x="1.93197" y="22.337" width="2.58381" height="2.58381" filterUnits="userSpaceOnUse" color-interpolation-filters="sRGB">
<feFlood flood-opacity="0" result="BackgroundImageFix"/>
<feColorMatrix in="SourceAlpha" type="matrix" values="0 0 0 0 0 0 0 0 0 0 0 0 0 0 0 0 0 0 127 0" result="hardAlpha"/>
<feOffset/>
<feGaussianBlur stdDeviation="0.442949"/>
<feComposite in2="hardAlpha" operator="out"/>
<feColorMatrix type="matrix" values="0 0 0 0 0.592157 0 0 0 0 0.392157 0 0 0 0 1 0 0 0 1 0"/>
<feBlend mode="normal" in2="BackgroundImageFix" result="effect1_dropShadow_2044_2232"/>
<feBlend mode="normal" in="SourceGraphic" in2="effect1_dropShadow_2044_2232" result="shape"/>
</filter>
<filter id="filter6_d_2044_2232" x="25.9725" y="25.6014" width="2.58381" height="2.58381" filterUnits="userSpaceOnUse" color-interpolation-filters="sRGB">
<feFlood flood-opacity="0" result="BackgroundImageFix"/>
<feColorMatrix in="SourceAlpha" type="matrix" values="0 0 0 0 0 0 0 0 0 0 0 0 0 0 0 0 0 0 127 0" result="hardAlpha"/>
<feOffset/>
<feGaussianBlur stdDeviation="0.442949"/>
<feComposite in2="hardAlpha" operator="out"/>
<feColorMatrix type="matrix" values="0 0 0 0 0.592157 0 0 0 0 0.392157 0 0 0 0 1 0 0 0 1 0"/>
<feBlend mode="normal" in2="BackgroundImageFix" result="effect1_dropShadow_2044_2232"/>
<feBlend mode="normal" in="SourceGraphic" in2="effect1_dropShadow_2044_2232" result="shape"/>
</filter>
<filter id="filter7_d_2044_2232" x="7.75129" y="19.7698" width="0.995962" height="0.995962" filterUnits="userSpaceOnUse" color-interpolation-filters="sRGB">
<feFlood flood-opacity="0" result="BackgroundImageFix"/>
<feColorMatrix in="SourceAlpha" type="matrix" values="0 0 0 0 0 0 0 0 0 0 0 0 0 0 0 0 0 0 127 0" result="hardAlpha"/>
<feOffset/>
<feGaussianBlur stdDeviation="0.170743"/>
<feComposite in2="hardAlpha" operator="out"/>
<feColorMatrix type="matrix" values="0 0 0 0 0.592157 0 0 0 0 0.392157 0 0 0 0 1 0 0 0 1 0"/>
<feBlend mode="normal" in2="BackgroundImageFix" result="effect1_dropShadow_2044_2232"/>
<feBlend mode="normal" in="SourceGraphic" in2="effect1_dropShadow_2044_2232" result="shape"/>
</filter>
<filter id="filter8_d_2044_2232" x="13.4634" y="6.76123" width="1.56494" height="1.56519" filterUnits="userSpaceOnUse" color-interpolation-filters="sRGB">
<feFlood flood-opacity="0" result="BackgroundImageFix"/>
<feColorMatrix in="SourceAlpha" type="matrix" values="0 0 0 0 0 0 0 0 0 0 0 0 0 0 0 0 0 0 127 0" result="hardAlpha"/>
<feOffset/>
<feGaussianBlur stdDeviation="0.268311"/>
<feComposite in2="hardAlpha" operator="out"/>
<feColorMatrix type="matrix" values="0 0 0 0 0.592157 0 0 0 0 0.392157 0 0 0 0 1 0 0 0 1 0"/>
<feBlend mode="normal" in2="BackgroundImageFix" result="effect1_dropShadow_2044_2232"/>
<feBlend mode="normal" in="SourceGraphic" in2="effect1_dropShadow_2044_2232" result="shape"/>
</filter>
<filter id="filter9_d_2044_2232" x="22.0102" y="8.45009" width="7.65253" height="7.65253" filterUnits="userSpaceOnUse" color-interpolation-filters="sRGB">
<feFlood flood-opacity="0" result="BackgroundImageFix"/>
<feColorMatrix in="SourceAlpha" type="matrix" values="0 0 0 0 0 0 0 0 0 0 0 0 0 0 0 0 0 0 127 0" result="hardAlpha"/>
<feOffset dy="0.554677"/>
<feGaussianBlur stdDeviation="1.06523"/>
<feComposite in2="hardAlpha" operator="out"/>
<feColorMatrix type="matrix" values="0 0 0 0 0.296824 0 0 0 0 0.244184 0 0 0 0 0.404167 0 0 0 0.6 0"/>
<feBlend mode="normal" in2="BackgroundImageFix" result="effect1_dropShadow_2044_2232"/>
<feBlend mode="normal" in="SourceGraphic" in2="effect1_dropShadow_2044_2232" result="shape"/>
</filter>
<filter id="filter10_d_2044_2232" x="2.45402" y="15.4908" width="4.62077" height="4.62052" filterUnits="userSpaceOnUse" color-interpolation-filters="sRGB">
<feFlood flood-opacity="0" result="BackgroundImageFix"/>
<feColorMatrix in="SourceAlpha" type="matrix" values="0 0 0 0 0 0 0 0 0 0 0 0 0 0 0 0 0 0 127 0" result="hardAlpha"/>
<feOffset dy="0.281606"/>
<feGaussianBlur stdDeviation="0.540812"/>
<feComposite in2="hardAlpha" operator="out"/>
<feColorMatrix type="matrix" values="0 0 0 0 0.220722 0 0 0 0 0.210451 0 0 0 0 0.241667 0 0 0 0.6 0"/>
<feBlend mode="normal" in2="BackgroundImageFix" result="effect1_dropShadow_2044_2232"/>
<feBlend mode="normal" in="SourceGraphic" in2="effect1_dropShadow_2044_2232" result="shape"/>
</filter>
<linearGradient id="paint0_linear_2044_2232" x1="29.3464" y1="22.297" x2="29.3286" y2="25.3847" gradientUnits="userSpaceOnUse">
<stop stop-color="#3F5FFF"/>
<stop offset="1" stop-color="#3F5FFF" stop-opacity="0"/>
</linearGradient>
<linearGradient id="paint1_linear_2044_2232" x1="29.3464" y1="22.297" x2="29.3286" y2="25.3847" gradientUnits="userSpaceOnUse">
<stop stop-color="#1DA0FF"/>
<stop offset="1" stop-color="#199FFF" stop-opacity="0.13"/>
</linearGradient>
<linearGradient id="paint2_linear_2044_2232" x1="26.0645" y1="1.33262" x2="26.8021" y2="1.34811" gradientUnits="userSpaceOnUse">
<stop stop-color="#26A4FF"/>
<stop offset="1" stop-color="#0D9AFF"/>
</linearGradient>
<linearGradient id="paint3_linear_2044_2232" x1="33.0732" y1="8.02973" x2="33.3844" y2="8.03626" gradientUnits="userSpaceOnUse">
<stop stop-color="#26A4FF"/>
<stop offset="1" stop-color="#0D9AFF"/>
</linearGradient>
<linearGradient id="paint4_linear_2044_2232" x1="7.02406" y1="11.6941" x2="7.83139" y2="11.7111" gradientUnits="userSpaceOnUse">
<stop stop-color="#26A4FF"/>
<stop offset="1" stop-color="#0D9AFF"/>
</linearGradient>
<linearGradient id="paint5_linear_2044_2232" x1="2.84193" y1="23.5869" x2="3.64926" y2="23.6039" gradientUnits="userSpaceOnUse">
<stop stop-color="#26A4FF"/>
<stop offset="1" stop-color="#0D9AFF"/>
</linearGradient>
<linearGradient id="paint6_linear_2044_2232" x1="26.8825" y1="26.8513" x2="27.6898" y2="26.8683" gradientUnits="userSpaceOnUse">
<stop stop-color="#26A4FF"/>
<stop offset="1" stop-color="#0D9AFF"/>
</linearGradient>
<linearGradient id="paint7_linear_2044_2232" x1="8.10205" y1="20.2517" x2="8.41325" y2="20.2582" gradientUnits="userSpaceOnUse">
<stop stop-color="#26A4FF"/>
<stop offset="1" stop-color="#0D9AFF"/>
</linearGradient>
<linearGradient id="paint8_linear_2044_2232" x1="14.0146" y1="7.51836" x2="14.5036" y2="7.52863" gradientUnits="userSpaceOnUse">
<stop stop-color="#26A4FF"/>
<stop offset="1" stop-color="#0D9AFF"/>
</linearGradient>
<linearGradient id="paint9_linear_2044_2232" x1="27.4545" y1="11.7747" x2="24.077" y2="11.3629" gradientUnits="userSpaceOnUse">
<stop stop-color="#26A4FF"/>
<stop offset="1" stop-color="#0D9AFF"/>
</linearGradient>
<linearGradient id="paint10_linear_2044_2232" x1="5.89937" y1="17.2185" x2="3.46786" y2="17.6377" gradientUnits="userSpaceOnUse">
<stop stop-color="#26A4FF"/>
<stop offset="1" stop-color="#0D9AFF"/>
</linearGradient>
</defs>
</svg>
