<svg width="44" height="44" viewBox="0 0 44 44" fill="none" xmlns="http://www.w3.org/2000/svg">
<path d="M28 0H16C7.1634 0 0 7.1634 0 16V28C0 36.8366 7.1634 44 16 44H28C36.8366 44 44 36.8366 44 28V16C44 7.1634 36.8366 0 28 0Z" fill="#F4F7FE"/>
<path fill-rule="evenodd" clip-rule="evenodd" d="M18.195 13.8523H25.7971C28.5675 13.8523 30.1483 15.4167 30.1483 18.1953V25.8056C30.1483 28.5678 28.5757 30.1486 25.8053 30.1486H18.195C15.4165 30.1486 13.8521 28.5678 13.8521 25.8056V18.1953C13.8521 15.4167 15.4165 13.8523 18.195 13.8523ZM22.6684 22.6767H24.9823C25.3571 22.6686 25.6586 22.3671 25.6586 21.9923C25.6586 21.6175 25.3571 21.316 24.9823 21.316H22.6684V19.0182C22.6684 18.6434 22.3669 18.3419 21.9921 18.3419C21.6172 18.3419 21.3158 18.6434 21.3158 19.0182V21.316H19.0098C18.8306 21.316 18.6594 21.3893 18.529 21.5116C18.4068 21.6419 18.3335 21.8122 18.3335 21.9923C18.3335 22.3671 18.635 22.6686 19.0098 22.6767H21.3158V24.9827C21.3158 25.3575 21.6172 25.659 21.9921 25.659C22.3669 25.659 22.6684 25.3575 22.6684 24.9827V22.6767Z" fill="#7857FF"/>
</svg>
